<svg height="512" viewBox="0 0 60 60" width="512" xmlns="http://www.w3.org/2000/svg"><g id="074---Skirt" fill="none"><g id="Icons" transform="translate(1 1)"><path id="Shape" d="m50 1v6h-42v-6c0-.55228475.44771525-1 1-1h40c.5522847 0 1 .44771525 1 1z" fill="#fec108"/><path id="Shape" d="m58 52c-2.3303364 1.4302431-4.8476041 2.5307064-7.48 3.27-13.38 4.06-33.73 3.43-44.95-.63-1.9536589-.6588027-3.82314255-1.5448776-5.57-2.64 5.36-11.49 7.61-34.18 8-46h42c.41 12.34 2.72 34.68 8 46z" fill="#fec108"/><path id="Shape" d="m55 53c-1.0381839-.0327525-2.0684757.1904774-3 .65-13 5.66-35.6 5.8-48.9 0-1.08680275-.4430475-2.1255236-.9959151-3.1-1.65 5.27-11.3 7.59-33.63 8-46h39c.39 11.74 2.71 35.66 8 47z" fill="#ffdc00"/><path id="Shape" d="m7.27 17h9.73v-4h-9.37z" fill="#f44335"/><path id="Shape" d="m50.73 17h-9.73v-4h9.37c.1 1.22.21 2.56.36 4z" fill="#c81e1e"/><path id="Shape" d="m47.73 17h-6.73v-4h6.37c.1 1.22.21 2.56.36 4z" fill="#f44335"/><path id="Shape" d="m41 12v6c-.0140363.6478187-.3410499 1.2486929-.8774277 1.6122378s-1.2156428.444704-1.8225723.2177622l-1-.36-4.3-1.54h-8l-5.3 1.94c-.6825079.2528613-1.4485039.114982-2-.36-.4507032-.370784-.7082908-.9264374-.7-1.51v-6c-.0012145-.5663051.2476362-1.1042618.68-1.47.5514961-.474982 1.3174921-.61286131 2-.36l5.32 1.9h8l4.32-1.58 1-.36c.6111426-.22096236 1.2915413-.1312166 1.8244883.2406531.532947.3718698.8519894.9794952.8555117 1.6293469z" fill="#f44335"/><g fill="#c81e1e"><path id="Shape" d="m38.3 10.13-1 .36c.4416304.3777306.6971265.9288721.7 1.51v6c-.0117749.5655274-.2624723 1.0996219-.69 1.47l1 .36c.6057602.2228602 1.2818387.1396763 1.8155087-.2233779.5336699-.3630543.8593224-.9613455.8744913-1.6066221v-6c-.0011455-.6549161-.3228644-1.2677778-.8612603-1.6406669-.538396-.37288903-1.2252466-.4585551-1.8387397-.2293331z"/><rect id="Rectangle-path" height="8" rx="2" width="8" x="25" y="11"/></g></g><path id="Shape" d="m1.4 53.8c.34.25 8.51 6.2 29.6 6.2s29.26-6 29.6-6.2c.3784262-.2824632.5076823-.7911486.31-1.22-5.7-12.22-7.91-36.79-7.91-50.58 0-1.1045695-.8954305-2-2-2h-40c-1.1045695 0-2 .8954305-2 2 .07981561 3.98095649-.05370908 7.96333041-.4 11.93-.82 11.07-2.8 28.56-7.51 38.65-.19768233.4288514-.0684262.9375368.31 1.22zm50.23-36.8h-7.63v-2h7.47c.01.1.15 1.88.16 2zm-15.63-3.23 4.66-1.7c.330616-.1430349.7126116-.0971955 1 .12.49.34.41.7.41 1.81v5c-.0106086.3237999-.1774248.6223967-.4475968.801187-.2701721.1787904-.6102183.2156173-.9124032.098813l-4.71-1.67c0-.47 0-3.99 0-4.46zm8-.77c-.0059557-.9706475-.4811737-1.8784298-1.2754401-2.436402s-1.8094139-.69717154-2.7245599-.373598l-4.78 1.75c-.5760112-.6099626-1.3811167-.9508631-2.22-.94h-4c-.8215284.0029948-1.6058855.3427624-2.17.94l-4.78-1.75c-.9210668-.34414037-1.9523085-.21508329-2.7601608.3454266-.8078523.5605099-1.2897576 1.4813152-1.2898392 2.4645734 0 .1.55 0-7.33 0 .16-2.25.25-4 .29-5h40.04c0 1 .13 2.75.29 5zm-10 1v4c0 .5522847-.4477153 1-1 1h-4c-.5522847 0-1-.4477153-1-1v-4c0-.5522847.4477153-1 1-1h4c.5522847 0 1 .4477153 1 1zm-23.47 1h7.47v2h-7.64c.06-.69.12-1.36.17-2zm9.47 3v-5c.0106086-.3237999.1774248-.6223967.4475968-.801187.2701721-.1787904.6102183-.2156173.9124032-.098813l4.64 1.67v4.46l-4.66 1.7c-.3164797.1240663-.6743118.0788665-.95-.12-.47-.34-.39-.7-.39-1.81zm-9-16h40v4h-40zm-.82 17c8.32 0 7.82-.06 7.82 0 0 1.6568542 1.3431458 3 3 3 .72 0 .64 0 5.83-1.94.5641145.5972376 1.3484716.9370052 2.17.94h4c.8215284-.0029948 1.6058855-.3427624 2.17-.94l4.83 1.75c.915146.3235735 1.9302935.1843742 2.7245599-.373598s1.2694844-1.4657545 1.2754401-2.436402h7.82c1 10.6 3 24.58 6.91 33.62-1.529225.850158-3.1324709 1.5597366-4.79 2.12-4.03-7.29-4.94-19.68-4.94-19.81-.0179288-.2654608-.140908-.5128324-.341723-.6873725-.2008149-.1745401-.4629072-.2618568-.728277-.2426275-.2654608.0179288-.5128324.140908-.6873725.341723-.1745401.2008149-.2618568.4629072-.2426275.728277 0 .53.92 12.6 5 20.29-3.4885782 1.0057637-7.0590861 1.7017952-10.67 2.08-1.1864668-4.7381975-1.9659679-9.5690966-2.33-14.44-.0441828-.5522847-.5277153-.9641828-1.08-.92s-.9641828.5277153-.92 1.08c.3694008 4.8926594 1.1454132 9.7460815 2.32 14.51-5.5367094.4700194-11.1032906.4700194-16.64 0 1.1756818-4.7704641 1.9517014-9.6306213 2.32-14.53.0386599-.5522847-.3777153-1.0313401-.93-1.07s-1.0313401.3777153-1.07.93c-.3629008 4.8776239-1.1424095 9.7152617-2.33 14.46-3.6115191-.3847461-7.1820368-1.0874722-10.67-2.1 4.08-7.69 5-19.76 5-20.29.0386599-.5522847-.3777153-1.03134-.93-1.07-.5522847-.0386599-1.03134.3777153-1.07.93 0 .13-.9 12.51-4.94 19.81-1.65833961-.5581799-3.26177222-1.2678411-4.79-2.12 3.96-9.05 5.93-23.02 6.91-33.62z" fill="#000" transform="translate(-1)"/></g></svg>